<svg xmlns="http://www.w3.org/2000/svg"  viewBox="0 0 100 100" width="500px" height="500px"><path fill="#c7ede6" d="M88.699,56.831c0.3-0.616,0.566-1.264,0.796-1.943c2.633-7.77-1.349-17.078-9.733-19.325 C78.854,24.18,70.854,16.37,61.82,15.038c-10.341-1.525-19.814,5.044-22.966,15.485c-3.799-1.346-7.501-1.182-10.99,0.857 c-1.583,0.732-3.031,1.812-4.33,3.233c-1.907,2.086-3.147,4.719-3.652,7.495c-0.748,0.118-1.483,0.236-2.176,0.484 c-4.04,1.449-6.589,4.431-7.288,8.923c-0.435,2.797,0.443,5.587,0.933,6.714c1.935,4.455,6.422,6.98,10.981,6.312 c0.227-0.033,0.557,0.069,0.752,0.233c0.241,7.12,3.698,13.417,8.884,17.014c8.321,5.772,19.027,3.994,25.781-3.921 c2.894,2.96,6.338,4.398,10.384,3.876c4.023-0.519,7.147-2.739,9.426-6.349c1.053,0.283,2.051,0.691,3.083,0.804 c4.042,0.442,7.324-1.165,9.732-4.8c0.922-1.391,1.793-3.194,1.793-6.354C92.169,61.788,90.874,58.821,88.699,56.831z"/><path fill="#fff" d="M18.362,48.867H8.332c-0.276,0-0.5-0.224-0.5-0.5s0.224-0.5,0.5-0.5h10.03 c0.276,0,0.5,0.224,0.5,0.5S18.639,48.867,18.362,48.867z M21.244,48.867h-1.446c-0.276,0-0.5-0.224-0.5-0.5s0.224-0.5,0.5-0.5 h1.446c0.276,0,0.5,0.224,0.5,0.5S21.52,48.867,21.244,48.867z M25.298,48.867h-2.546c-0.276,0-0.5-0.224-0.5-0.5 s0.224-0.5,0.5-0.5h2.546c0.276,0,0.5,0.224,0.5,0.5S25.574,48.867,25.298,48.867z M25.298,50.732h-9.616 c-0.276,0-0.5-0.224-0.5-0.5s0.224-0.5,0.5-0.5h9.616c0.276,0,0.5,0.224,0.5,0.5S25.574,50.732,25.298,50.732z M13.95,50.732h-0.58 c-0.276,0-0.5-0.224-0.5-0.5s0.224-0.5,0.5-0.5h0.58c0.276,0,0.5,0.224,0.5,0.5S14.227,50.732,13.95,50.732z M11.573,50.732h-1.456 c-0.276,0-0.5-0.224-0.5-0.5s0.224-0.5,0.5-0.5h1.456c0.276,0,0.5,0.224,0.5,0.5S11.85,50.732,11.573,50.732z M20.709,47.002 h-5.027c-0.276,0-0.5-0.224-0.5-0.5s0.224-0.5,0.5-0.5h5.027c0.276,0,0.5,0.224,0.5,0.5S20.985,47.002,20.709,47.002z M20.709,45.137h-1.257c-0.276,0-0.5-0.224-0.5-0.5s0.224-0.5,0.5-0.5h1.257c0.276,0,0.5,0.224,0.5,0.5 S20.985,45.137,20.709,45.137z M17.441,52.597h-1.759c-0.276,0-0.5-0.224-0.5-0.5s0.224-0.5,0.5-0.5h1.759 c0.276,0,0.5,0.224,0.5,0.5S17.717,52.597,17.441,52.597z M74.388,26.546h-10.03c-0.276,0-0.5-0.224-0.5-0.5s0.224-0.5,0.5-0.5 h10.03c0.276,0,0.5,0.224,0.5,0.5S74.665,26.546,74.388,26.546z M77.271,26.546h-1.446c-0.276,0-0.5-0.224-0.5-0.5 s0.224-0.5,0.5-0.5h1.446c0.276,0,0.5,0.224,0.5,0.5S77.547,26.546,77.271,26.546z M81.325,26.546h-2.546 c-0.276,0-0.5-0.224-0.5-0.5s0.224-0.5,0.5-0.5h2.546c0.276,0,0.5,0.224,0.5,0.5S81.602,26.546,81.325,26.546z M81.325,28.411 h-9.617c-0.276,0-0.5-0.224-0.5-0.5s0.224-0.5,0.5-0.5h9.617c0.276,0,0.5,0.224,0.5,0.5S81.602,28.411,81.325,28.411z M69.977,28.411h-0.58c-0.276,0-0.5-0.224-0.5-0.5s0.224-0.5,0.5-0.5h0.58c0.276,0,0.5,0.224,0.5,0.5S70.254,28.411,69.977,28.411z M67.6,28.411h-1.456c-0.276,0-0.5-0.224-0.5-0.5s0.224-0.5,0.5-0.5H67.6c0.276,0,0.5,0.224,0.5,0.5S67.877,28.411,67.6,28.411z M76.735,24.681h-5.028c-0.276,0-0.5-0.224-0.5-0.5s0.224-0.5,0.5-0.5h5.028c0.276,0,0.5,0.224,0.5,0.5 S77.012,24.681,76.735,24.681z M76.735,22.816h-1.257c-0.276,0-0.5-0.224-0.5-0.5s0.224-0.5,0.5-0.5h1.257 c0.276,0,0.5,0.224,0.5,0.5S77.012,22.816,76.735,22.816z M73.466,30.276h-1.759c-0.276,0-0.5-0.224-0.5-0.5s0.224-0.5,0.5-0.5 h1.759c0.276,0,0.5,0.224,0.5,0.5S73.743,30.276,73.466,30.276z"/><path fill="#fdfcef" d="M77.959,53.7c0,0,10.616,0,10.681,0c2.452,0,4.439-1.987,4.439-4.439 c0-2.139-1.513-3.924-3.527-4.344c0.023-0.187,0.039-0.377,0.039-0.57c0-2.539-2.058-4.598-4.597-4.598 c-1.499,0-2.827,0.721-3.666,1.831c-0.215-2.826-2.739-5.007-5.693-4.646c-2.16,0.264-3.947,1.934-4.344,4.073 c-0.127,0.686-0.114,1.352,0.013,1.977c-0.579-0.624-1.403-1.016-2.322-1.016c-1.68,0-3.052,1.308-3.16,2.961 c-0.763-0.169-1.593-0.158-2.467,0.17c-1.671,0.627-2.861,2.2-2.93,3.983c-0.099,2.533,1.925,4.617,4.435,4.617 c0.191,0,0.861,0,1.015,0h9.218"/><path fill="#472b29" d="M88.641,54.2H77.959c-0.276,0-0.5-0.224-0.5-0.5s0.224-0.5,0.5-0.5H88.64 c2.172,0,3.939-1.767,3.939-3.939c0-1.854-1.316-3.476-3.129-3.855c-0.254-0.053-0.425-0.292-0.394-0.55 c0.021-0.168,0.035-0.337,0.035-0.51c0-2.259-1.838-4.098-4.098-4.098c-1.292,0-2.483,0.595-3.267,1.632 c-0.126,0.166-0.34,0.237-0.54,0.179c-0.2-0.059-0.342-0.235-0.358-0.442c-0.094-1.238-0.701-2.401-1.664-3.19 c-0.973-0.798-2.207-1.149-3.471-0.997c-1.947,0.238-3.556,1.747-3.913,3.668c-0.112,0.601-0.108,1.201,0.011,1.786 c0.045,0.22-0.062,0.442-0.261,0.545c-0.199,0.102-0.443,0.06-0.595-0.104c-0.513-0.552-1.208-0.856-1.956-0.856 c-1.4,0-2.569,1.095-2.661,2.494c-0.01,0.146-0.082,0.28-0.199,0.367s-0.268,0.118-0.408,0.088 c-0.755-0.167-1.468-0.118-2.183,0.15c-1.498,0.562-2.545,1.982-2.606,3.535c-0.042,1.083,0.347,2.109,1.096,2.889 c0.75,0.78,1.758,1.209,2.84,1.209h10.233c0.276,0,0.5,0.224,0.5,0.5s-0.224,0.5-0.5,0.5H64.86c-1.356,0-2.621-0.539-3.561-1.516 c-0.939-0.977-1.428-2.263-1.375-3.621c0.076-1.949,1.384-3.73,3.254-4.432c0.72-0.27,1.464-0.363,2.221-0.279 c0.362-1.655,1.842-2.884,3.582-2.884c0.603,0,1.194,0.151,1.72,0.431c0.004-0.327,0.036-0.655,0.097-0.983 c0.436-2.346,2.399-4.188,4.775-4.478c1.54-0.191,3.039,0.244,4.226,1.216c0.899,0.737,1.543,1.742,1.847,2.851 c0.919-0.807,2.094-1.256,3.347-1.256c2.811,0,5.098,2.287,5.098,5.098c0,0.064-0.001,0.128-0.004,0.192 c2.048,0.628,3.492,2.547,3.492,4.723C93.579,51.984,91.364,54.2,88.641,54.2z"/><path fill="#fdfcef" d="M72.386,39.921c-1.642-0.108-3.055,1.026-3.157,2.533c-0.013,0.187-0.004,0.371,0.023,0.55 c-0.317-0.358-0.786-0.6-1.324-0.636c-0.985-0.065-1.836,0.586-1.959,1.471c-0.179-0.049-0.366-0.082-0.56-0.095 c-1.437-0.094-2.674,0.898-2.762,2.216"/><path fill="#472b29" d="M62.648,46.211c-0.006,0-0.012,0-0.017,0c-0.138-0.009-0.242-0.128-0.233-0.266 c0.098-1.454,1.453-2.556,3.028-2.449c0.116,0.008,0.234,0.022,0.353,0.045c0.26-0.878,1.158-1.485,2.166-1.421 c0.377,0.025,0.73,0.139,1.035,0.33c0-0.004,0-0.008,0-0.012c0.111-1.641,1.652-2.872,3.423-2.765 c0.138,0.009,0.242,0.128,0.233,0.266c-0.009,0.138-0.131,0.243-0.266,0.233c-1.514-0.102-2.799,0.933-2.891,2.3 c-0.011,0.165-0.004,0.332,0.021,0.496c0.017,0.109-0.041,0.217-0.141,0.264c-0.098,0.047-0.219,0.023-0.293-0.061 c-0.285-0.321-0.705-0.522-1.154-0.552c-0.846-0.056-1.589,0.496-1.695,1.256c-0.01,0.071-0.05,0.134-0.109,0.174 c-0.06,0.04-0.135,0.051-0.203,0.033c-0.173-0.046-0.345-0.076-0.511-0.086c-1.303-0.085-2.417,0.805-2.497,1.983 C62.889,46.11,62.778,46.211,62.648,46.211z"/><path fill="#7238ce" d="M72.287,40.172c-0.437-0.47-5.943-2.232-6.822-2.968c-1.245-1.043-0.68-4.303-1.999-5.199 c3.887,0,4.683,0.557,6.17,1.665C72.885,36.088,71.665,38.615,72.287,40.172z"/><path fill="#8638c6" d="M72.142,42.381l-0.124,1.376v1.376c-1.376-1.868-11.424-10.767-15.607-12.744l2.172-0.646h2.512 c0.819,0,1.606,0.087,2.37,0.262c2.25,1.529,4.402,3.266,6.422,5.232c0.459,0.448,1.198,1.124,1.634,1.594 c0.246,0.601,0.145,1.001,0.277,1.65C71.8,40.48,72.142,41.635,72.142,42.381z"/><path fill="#a035bf" d="M72.018,45.133v6.663c-1.801-3.314-19.556-18.019-27.522-19.934c-0.2-0.048-0.311,0.033-0.498,0.001 l0.387-0.121h10.398c0,0,2.538,0.669,5.149,2.254c2.648,1.607,5.133,3.564,7.444,5.817C69.091,41.485,70.642,43.266,72.018,45.133z"/><path fill="#be37b5" d="M72.018,51.796c0,0-0.022,9.491-0.055,9.437c-1.627-5.996-38.036-26.443-38.299-26.421 c1.316-1.272,2.201-2.216,4.018-2.701c0,0,6.581-0.308,6.755-0.276c7.457,1.36,14.599,4.868,20.437,10.546 C67.791,45.221,70.172,48.399,72.018,51.796z"/><path fill="#df35a5" d="M71.964,61.233c-0.218,2.25,0.155,6.185-2.512,8.616c-0.786-7.198-35.226-31.389-36.351-31.258 c-0.096-1.412-0.36-2.731,0.743-3.779c0.262-0.022,2.721-0.033,2.983-0.033c9.186-0.12,18.426,3.255,25.536,10.18 C67.136,49.601,70.336,55.236,71.964,61.233z"/><path fill="#fb3593" d="M69.452,67.164v2.073c-0.95,1.125-2.108,0.964-3.43,1.631c-0.186-7.209-31.771-28.87-33.169-28.64 c0.016-0.633-0.057-1.144,0.064-1.746c0.132-0.654,0.077-1.287,0.321-1.89c1.125-0.131,2.496-0.208,3.632-0.218 c8.279-0.109,16.591,2.927,22.991,9.164C65.465,52.986,68.665,59.966,69.452,67.164z"/><path fill="#ff3a71" d="M62.45,70.975c0,0-28.343-25.252-29.752-24.99v-2.228l0.43-1.44 c1.398-0.229,2.388-0.329,3.797-0.351c7.351-0.098,14.745,2.61,20.425,8.137c5.581,5.428,8.487,13.204,8.672,20.413 C64.93,71.073,63.728,70.822,62.45,70.975z"/><path fill="#ff3f43" d="M62.45,70.364v0.612c-0.437,0.055-0.896,0.087-1.354,0.087h-2.25 c0.011-0.218-24.728-21.724-26.148-21.419v-3.659c1.409-0.262,2.84-0.404,4.271-0.426c6.433-0.087,12.899,2.283,17.88,7.121 C59.829,57.53,62.363,63.931,62.45,70.364z"/><path fill="#fe4c2b" d="M58.857,70.407c0,0.218,0,0.437-0.011,0.655h-3.593c0.011-0.208-0.252-0.437-0.252-0.634 c-0.055-4.598-16.404-18.655-22.302-17.093v-3.692c1.42-0.306,2.873-0.47,4.314-0.492c5.516-0.076,11.064,1.955,15.335,6.105 C56.607,59.409,58.792,64.892,58.857,70.407z"/><path fill="#ff5a17" d="M55.264,70.462c0,0.197,0,0.393-0.011,0.601H51.67c0.011-0.186-0.107-0.371-0.107-0.557 c-0.055-3.67-13.917-15.084-18.865-13.423v-3.746c5.898-1.562,12.44-0.076,17.137,4.489C53.396,61.287,55.209,65.864,55.264,70.462 z"/><path fill="#ff6804" d="M51.681,70.506c0,0.186,0,0.371-0.011,0.557h-3.593c0.098-2.927-11.403-11.971-15.346-10.114 c-0.011,0-0.033-3.866-0.033-3.866c4.948-1.66,10.638-0.579,14.636,3.32C50.174,63.177,51.627,66.836,51.681,70.506z"/><path fill="#ff7501" d="M44.472,71.063c0.109-1.988-8.126-8.159-10.846-6.521c-0.491-1.114-0.808-2.316-0.896-3.593 c3.943-1.857,8.792-1.191,12.091,2.032c2.272,2.206,3.353,5.155,3.255,8.082C48.076,71.063,44.472,71.063,44.472,71.063z"/><path fill="#ff8c01" d="M44.472,71.063H43.62c-0.939,0-1.846-0.12-2.72-0.35c0-0.939-3.954-3.899-5.297-3.167 c-0.819-0.874-1.485-1.89-1.977-3.004c2.72-1.638,6.313-1.311,8.694,1.016C43.861,67.054,44.582,69.075,44.472,71.063z"/><path fill="#ff9b04" d="M40.901,70.713c-2.064-0.524-3.899-1.638-5.297-3.167c1.343-0.732,3.058-0.535,4.205,0.579 C40.54,68.835,40.901,69.774,40.901,70.713z"/><path fill="#472b29" d="M86.27,47.358c-0.018,0-0.037-0.002-0.056-0.006c-0.135-0.031-0.219-0.165-0.188-0.299 c0.045-0.199,0.113-0.393,0.201-0.574c0.716-1.484,2.651-2.054,4.317-1.268c0.125,0.059,0.179,0.208,0.12,0.333 c-0.059,0.126-0.209,0.177-0.333,0.12c-1.417-0.667-3.056-0.204-3.654,1.033c-0.072,0.148-0.127,0.305-0.164,0.468 C86.486,47.279,86.383,47.358,86.27,47.358z"/><path fill="#472b29" d="M65.256,71.829H39.532c-4.162,0-7.548-3.386-7.548-7.547V38.559c0-4.162,3.386-7.547,7.548-7.547 h25.722c4.162,0,7.547,3.386,7.547,7.547v25.722C72.802,68.443,69.416,71.829,65.256,71.829z M39.532,32.412 c-3.39,0-6.147,2.757-6.147,6.147v25.722c0,3.39,2.758,6.147,6.147,6.147h25.722c3.39,0,6.147-2.757,6.147-6.147V38.559 c0-3.39-2.757-6.147-6.147-6.147H39.532z"/><path fill="#472b29" d="M64.152,68.663H40.634c-3.024,0-5.484-2.46-5.484-5.484V39.662c0-3.024,2.46-5.484,5.484-5.484 h22.395c0.193,0,0.35,0.157,0.35,0.35s-0.157,0.35-0.35,0.35H40.634c-2.638,0-4.784,2.146-4.784,4.784v23.517 c0,2.638,2.146,4.784,4.784,4.784h23.518c2.638,0,4.784-2.146,4.784-4.784v-13.01c0-0.193,0.157-0.35,0.35-0.35 s0.35,0.157,0.35,0.35v13.01C69.636,66.203,67.176,68.663,64.152,68.663z"/><path fill="#472b29" d="M69.286,48.642c-0.193,0-0.35-0.157-0.35-0.35v-2.503c0-0.193,0.157-0.35,0.35-0.35 s0.35,0.157,0.35,0.35v2.503C69.636,48.485,69.48,48.642,69.286,48.642z M69.286,44.888c-0.193,0-0.35-0.157-0.35-0.35v-1.251 c0-0.193,0.157-0.35,0.35-0.35s0.35,0.157,0.35,0.35v1.251C69.636,44.731,69.48,44.888,69.286,44.888z"/><path fill="#fdfcef" d="M58.5,64h-12c-3.584,0-6.5-2.916-6.5-6.5v-12c0-3.584,2.916-6.5,6.5-6.5h12 c3.584,0,6.5,2.916,6.5,6.5v12C65,61.084,62.084,64,58.5,64z M46.5,40c-3.033,0-5.5,2.467-5.5,5.5v12c0,3.032,2.467,5.5,5.5,5.5h12 c3.032,0,5.5-2.468,5.5-5.5v-12c0-3.033-2.468-5.5-5.5-5.5H46.5z"/><rect width="24" height="1" x="40.5" y="47" fill="#fdfcef"/><rect width="1" height="9.434" x="48.5" y="38.783" fill="#fdfcef" transform="rotate(-32 49 43.5)"/><rect width="1" height="9.434" x="56.5" y="38.783" fill="#fdfcef" transform="rotate(-32 57 43.5)"/><path fill="#fdfcef" d="M50.744,59.236c-0.253,0-0.507-0.065-0.739-0.197c-0.477-0.27-0.761-0.758-0.761-1.305v-5.468 c0-0.547,0.284-1.035,0.761-1.305c0.477-0.271,1.041-0.262,1.511,0.019l4.858,2.915C56.767,54.13,57,54.543,57,55 s-0.233,0.87-0.626,1.105l-4.858,2.915C51.275,59.164,51.01,59.236,50.744,59.236z"/><path fill="#fdfcef" d="M39.12,74.641c1.71,0,3.194,0,3.215,0c1.916,0,3.469-1.52,3.469-3.396 c0-1.636-1.182-3.001-2.756-3.323c0.018-0.143,0.031-0.288,0.031-0.436c0-1.942-1.609-3.517-3.593-3.517 c-1.172,0-2.209,0.551-2.865,1.401c-0.168-2.162-2.141-3.83-4.45-3.554c-1.688,0.202-3.084,1.479-3.395,3.116 c-0.1,0.525-0.089,1.034,0.01,1.512c-0.453-0.477-1.097-0.777-1.814-0.777c-1.313,0-2.385,1.001-2.47,2.265 c-0.596-0.129-1.245-0.121-1.928,0.13c-1.306,0.48-2.236,1.683-2.29,3.047c-0.077,1.937,1.504,3.532,3.467,3.532 c0.149,0,0.673,0,0.794,0h7.204 M33.239,74.641h0.327"/><path fill="#472b29" d="M42.335,75.141H39.12c-0.276,0-0.5-0.224-0.5-0.5s0.224-0.5,0.5-0.5h3.215 c1.637,0,2.969-1.299,2.969-2.896c0-1.363-0.991-2.554-2.356-2.833c-0.256-0.052-0.429-0.293-0.396-0.552 c0.016-0.123,0.027-0.247,0.027-0.374c0-1.664-1.388-3.017-3.093-3.017c-0.977,0-1.877,0.44-2.47,1.207 c-0.126,0.164-0.341,0.233-0.539,0.173c-0.198-0.059-0.339-0.234-0.355-0.44c-0.071-0.913-0.507-1.741-1.227-2.332 c-0.742-0.609-1.687-0.883-2.665-0.764c-1.475,0.177-2.694,1.292-2.963,2.712c-0.084,0.443-0.081,0.887,0.008,1.317 c0.046,0.219-0.06,0.441-0.257,0.545c-0.198,0.104-0.44,0.063-0.595-0.099c-0.38-0.401-0.896-0.622-1.452-0.622 c-1.038,0-1.903,0.79-1.971,1.799c-0.01,0.145-0.082,0.278-0.198,0.366s-0.265,0.119-0.406,0.089 c-0.573-0.125-1.111-0.087-1.65,0.111c-1.129,0.415-1.917,1.459-1.963,2.598c-0.031,0.782,0.252,1.526,0.799,2.096 c0.568,0.591,1.337,0.916,2.167,0.916h7.998c0.276,0,0.5,0.224,0.5,0.5s-0.224,0.5-0.5,0.5h-7.998 c-1.089,0-2.142-0.446-2.888-1.224c-0.737-0.767-1.12-1.771-1.078-2.828c0.061-1.538,1.113-2.943,2.617-3.496 c0.548-0.201,1.115-0.276,1.688-0.228c0.332-1.268,1.507-2.198,2.882-2.198c0.431,0,0.854,0.094,1.24,0.269 c0.011-0.199,0.035-0.397,0.073-0.597c0.35-1.844,1.924-3.291,3.827-3.519c1.249-0.149,2.462,0.2,3.418,0.984 c0.668,0.548,1.147,1.254,1.399,2.047c0.717-0.568,1.61-0.882,2.557-0.882c2.257,0,4.093,1.802,4.093,4.017c0,0.02,0,0.04,0,0.06 c1.603,0.52,2.726,2.011,2.726,3.7C46.305,73.393,44.524,75.141,42.335,75.141z M33.565,75.141h-0.327c-0.276,0-0.5-0.224-0.5-0.5 s0.224-0.5,0.5-0.5h0.327c0.276,0,0.5,0.224,0.5,0.5S33.841,75.141,33.565,75.141z"/><path fill="#472b29" d="M40.785,69.849c-0.018,0-0.036-0.002-0.055-0.006c-0.135-0.03-0.219-0.164-0.189-0.299 c0.035-0.153,0.087-0.301,0.157-0.441c0.555-1.123,2.084-1.537,3.409-0.924c0.125,0.058,0.18,0.207,0.122,0.332 s-0.206,0.179-0.332,0.122c-1.081-0.501-2.315-0.19-2.751,0.692c-0.052,0.104-0.091,0.214-0.116,0.328 C41.002,69.769,40.899,69.849,40.785,69.849z M36.1,75.141h-1.005c-0.276,0-0.5-0.224-0.5-0.5s0.224-0.5,0.5-0.5H36.1 c0.276,0,0.5,0.224,0.5,0.5S36.376,75.141,36.1,75.141z"/></svg>